<?xml version="1.0" encoding="UTF-8" ?>
<svg version="1.1" width="16" height="16" xmlns="http://www.w3.org/2000/svg" shape-rendering="crispEdges">
<rect x="0" y="0" width="7" height="1" fill="#FFFFFF" />
<rect x="7" y="0" width="2" height="16" fill="#000000" />
<rect x="9" y="0" width="7" height="1" fill="#FFFFFF" />
<rect x="0" y="1" width="2" height="2" fill="#FFFFFF" />
<rect x="2" y="1" width="2" height="4" fill="#37946E" />
<rect x="4" y="1" width="3" height="2" fill="#FFFFFF" />
<rect x="9" y="1" width="3" height="2" fill="#FFFFFF" />
<rect x="12" y="1" width="2" height="4" fill="#37946E" />
<rect x="14" y="1" width="2" height="2" fill="#FFFFFF" />
<rect x="0" y="3" width="2" height="2" fill="#37946E" />
<rect x="4" y="3" width="2" height="2" fill="#37946E" />
<rect x="6" y="3" width="1" height="4" fill="#FFFFFF" />
<rect x="9" y="3" width="1" height="4" fill="#FFFFFF" />
<rect x="10" y="3" width="2" height="2" fill="#37946E" />
<rect x="14" y="3" width="2" height="2" fill="#37946E" />
<rect x="0" y="5" width="6" height="2" fill="#FFFFFF" />
<rect x="10" y="5" width="6" height="2" fill="#FFFFFF" />
<rect x="0" y="7" width="7" height="2" fill="#000000" />
<rect x="9" y="7" width="7" height="2" fill="#000000" />
<rect x="0" y="9" width="7" height="2" fill="#FFFFFF" />
<rect x="9" y="9" width="7" height="2" fill="#FFFFFF" />
<rect x="0" y="11" width="6" height="2" fill="#37946E" />
<rect x="6" y="11" width="1" height="5" fill="#FFFFFF" />
<rect x="9" y="11" width="1" height="5" fill="#FFFFFF" />
<rect x="10" y="11" width="6" height="2" fill="#37946E" />
<rect x="0" y="13" width="2" height="3" fill="#FFFFFF" />
<rect x="2" y="13" width="2" height="2" fill="#37946E" />
<rect x="4" y="13" width="2" height="3" fill="#FFFFFF" />
<rect x="10" y="13" width="2" height="3" fill="#FFFFFF" />
<rect x="12" y="13" width="2" height="2" fill="#37946E" />
<rect x="14" y="13" width="2" height="3" fill="#FFFFFF" />
<rect x="2" y="15" width="2" height="1" fill="#FFFFFF" />
<rect x="12" y="15" width="2" height="1" fill="#FFFFFF" />
</svg>