<?xml version="1.0" encoding="UTF-8" ?>
<svg version="1.1" width="16" height="16" xmlns="http://www.w3.org/2000/svg" shape-rendering="crispEdges">
<rect x="0" y="0" width="16" height="1" fill="#FFFFFF" />
<rect x="0" y="1" width="9" height="1" fill="#FFFFFF" />
<rect x="9" y="1" width="6" height="2" fill="#000000" />
<rect x="15" y="1" width="1" height="15" fill="#FFFFFF" />
<rect x="0" y="2" width="7" height="1" fill="#FFFFFF" />
<rect x="7" y="2" width="2" height="2" fill="#000000" />
<rect x="0" y="3" width="5" height="1" fill="#FFFFFF" />
<rect x="5" y="3" width="2" height="4" fill="#000000" />
<rect x="9" y="3" width="4" height="2" fill="#FFFFFF" />
<rect x="13" y="3" width="2" height="1" fill="#000000" />
<rect x="0" y="4" width="3" height="1" fill="#FFFFFF" />
<rect x="3" y="4" width="2" height="3" fill="#000000" />
<rect x="7" y="4" width="2" height="1" fill="#FFFFFF" />
<rect x="13" y="4" width="2" height="1" fill="#FFFFFF" />
<rect x="0" y="5" width="1" height="11" fill="#FFFFFF" />
<rect x="1" y="5" width="2" height="10" fill="#000000" />
<rect x="7" y="5" width="8" height="2" fill="#000000" />
<rect x="3" y="7" width="10" height="1" fill="#FFFFFF" />
<rect x="13" y="7" width="2" height="8" fill="#000000" />
<rect x="3" y="8" width="4" height="1" fill="#FFFFFF" />
<rect x="7" y="8" width="2" height="4" fill="#000000" />
<rect x="9" y="8" width="4" height="1" fill="#FFFFFF" />
<rect x="3" y="9" width="2" height="4" fill="#FFFFFF" />
<rect x="5" y="9" width="2" height="2" fill="#000000" />
<rect x="9" y="9" width="2" height="2" fill="#000000" />
<rect x="11" y="9" width="2" height="4" fill="#FFFFFF" />
<rect x="5" y="11" width="2" height="2" fill="#FFFFFF" />
<rect x="9" y="11" width="2" height="2" fill="#FFFFFF" />
<rect x="7" y="12" width="2" height="1" fill="#FFFFFF" />
<rect x="3" y="13" width="10" height="2" fill="#000000" />
<rect x="1" y="15" width="14" height="1" fill="#FFFFFF" />
</svg>